<svg id="Layer_1" data-name="Layer 1" xmlns="http://www.w3.org/2000/svg" viewBox="0 0 88.26 88.26"><defs><style>.cls-1{fill:#fff;}.cls-2{fill:#4677a9;}</style></defs><circle class="cls-1" cx="44.13" cy="44.13" r="42.43"/><path class="cls-2" d="M60.51,67.77c-14.83,9.09-34.37-3.68-29.58-22.54l9.55,3.6-9-16.22L14.15,38.9,22.51,42a33.22,33.22,0,0,0-1.22,11.62C23.16,75.74,48.48,86.88,66.1,74.87ZM31.45,44.67l-.17-.07C31.34,44.58,31.39,44.6,31.45,44.67Z" transform="translate(-5.87 -5.87)"/><path class="cls-2" d="M39.16,32.72C54,23.62,73.54,36.39,68.74,55.26l-9.55-3.6,9,16.21,17.35-6.28-8.35-3.15a33.7,33.7,0,0,0,1.22-11.62c-1.87-22.07-27.2-33.21-44.82-21.2ZM68.22,55.81l.17.07S68.28,55.88,68.22,55.81Z" transform="translate(-5.87 -5.87)"/><path class="cls-2" d="M50,94.13A44.13,44.13,0,1,1,94.13,50,44.18,44.18,0,0,1,50,94.13ZM50,9.49A40.51,40.51,0,1,0,90.51,50,40.55,40.55,0,0,0,50,9.49Z" transform="translate(-5.87 -5.87)"/></svg>